<?xml version="1.0" ?>
<svg viewBox="0 0 64 64" xmlns="http://www.w3.org/2000/svg">
  <g id="Glyph">
    <g data-name="Glyph" id="Glyph-2">
      <path fill="white" d="M25,56H21a1,1,0,0,0,0,2h4a1,1,0,0,0,0-2Z"/>
      <circle fill="white" cx="29" cy="57" r="1"/>
      <path fill="white" d="M37,22H27a1,1,0,0,0-1,1v4a1.06,1.06,0,0,0,.11.44h0L28,31.24V44a3,3,0,0,0,3,3h2a3,3,0,0,0,3-3V31.24l1.89-3.79h0A1.06,1.06,0,0,0,38,27V23A1,1,0,0,0,37,22ZM34,43H30V41h4Zm.11-12.45A1,1,0,0,0,34,31v1H30V31a1,1,0,0,0-.11-.45L29.62,30h4.76ZM36,26.76,35.38,28H28.62L28,26.76V26h8Z"/>
      <path fill="white" d="M32,20a1,1,0,0,0,1-1V17a1,1,0,0,0-2,0v2A1,1,0,0,0,32,20Z"/>
      <path fill="white" d="M38.45,16.11a1,1,0,0,0-1.34.44l-1,2a1,1,0,0,0,.44,1.34A.93.93,0,0,0,37,20a1,1,0,0,0,.89-.55l1-2A1,1,0,0,0,38.45,16.11Z"/>
      <path fill="white" d="M26.11,19.45A1,1,0,0,0,27,20a.93.93,0,0,0,.45-.11,1,1,0,0,0,.44-1.34l-1-2a1,1,0,0,0-1.78.9Z"/>
      <circle fill="white" cx="32" cy="6" r="1"/>
      <path fill="white" d="M48,11V6.11A4.11,4.11,0,0,0,43.89,2H20.11A4.11,4.11,0,0,0,16,6.11V57.89A4.11,4.11,0,0,0,20.11,62H43.89A4.11,4.11,0,0,0,48,57.89V28a1,1,0,0,0,1-1V24a1,1,0,0,0-1-1V19a1,1,0,0,0,1-1V12A1,1,0,0,0,48,11ZM46,57.89A2.1,2.1,0,0,1,43.89,60H20.11A2.1,2.1,0,0,1,18,57.89V6.11A2.1,2.1,0,0,1,20.11,4H43.89A2.1,2.1,0,0,1,46,6.11Z"/>
    </g>
  </g>
</svg>
